<mxfile host="app.diagrams.net" agent="Mozilla/5.0 (Macintosh; Intel Mac OS X 10_15_7) AppleWebKit/605.1.15 (KHTML, like Gecko) Version/17.4.1 Safari/605.1.15" version="24.7.6">
  <diagram name="Page-1" id="WRzZChuF6ln-mGBXRLBE">
    <mxGraphModel dx="1059" dy="648" grid="0" gridSize="10" guides="1" tooltips="1" connect="1" arrows="1" fold="1" page="0" pageScale="1" pageWidth="827" pageHeight="1169" math="0" shadow="0">
      <root>
        <mxCell id="0" />
        <mxCell id="1" parent="0" />
        <mxCell id="NpaNIxJUK8UgjH4EaC_c-1" value="&lt;span style=&quot;font-size: 13px; text-align: start; white-space: normal;&quot;&gt;agencyMaster&lt;/span&gt;" style="shape=table;startSize=30;container=1;collapsible=1;childLayout=tableLayout;fixedRows=1;rowLines=0;fontStyle=0;align=center;resizeLast=1;html=1;fontFamily=Garamond;fontSize=13;" vertex="1" parent="1">
          <mxGeometry x="-30" y="11" width="180" height="90" as="geometry" />
        </mxCell>
        <mxCell id="NpaNIxJUK8UgjH4EaC_c-2" value="" style="shape=tableRow;horizontal=0;startSize=0;swimlaneHead=0;swimlaneBody=0;fillColor=none;collapsible=0;dropTarget=0;points=[[0,0.5],[1,0.5]];portConstraint=eastwest;top=0;left=0;right=0;bottom=1;fontFamily=Garamond;fontStyle=0;fontSize=13;" vertex="1" parent="NpaNIxJUK8UgjH4EaC_c-1">
          <mxGeometry y="30" width="180" height="30" as="geometry" />
        </mxCell>
        <mxCell id="NpaNIxJUK8UgjH4EaC_c-3" value="PK" style="shape=partialRectangle;connectable=0;fillColor=none;top=0;left=0;bottom=0;right=0;fontStyle=0;overflow=hidden;whiteSpace=wrap;html=1;fontFamily=Garamond;fontSize=13;" vertex="1" parent="NpaNIxJUK8UgjH4EaC_c-2">
          <mxGeometry width="30" height="30" as="geometry">
            <mxRectangle width="30" height="30" as="alternateBounds" />
          </mxGeometry>
        </mxCell>
        <mxCell id="NpaNIxJUK8UgjH4EaC_c-4" value="&lt;span style=&quot;font-size: 13px; text-decoration: none;&quot;&gt;AgencyID&lt;/span&gt;" style="shape=partialRectangle;connectable=0;fillColor=none;top=0;left=0;bottom=0;right=0;align=left;spacingLeft=6;fontStyle=4;overflow=hidden;whiteSpace=wrap;html=1;fontFamily=Garamond;fontSize=13;" vertex="1" parent="NpaNIxJUK8UgjH4EaC_c-2">
          <mxGeometry x="30" width="150" height="30" as="geometry">
            <mxRectangle width="150" height="30" as="alternateBounds" />
          </mxGeometry>
        </mxCell>
        <mxCell id="NpaNIxJUK8UgjH4EaC_c-5" value="" style="shape=tableRow;horizontal=0;startSize=0;swimlaneHead=0;swimlaneBody=0;fillColor=none;collapsible=0;dropTarget=0;points=[[0,0.5],[1,0.5]];portConstraint=eastwest;top=0;left=0;right=0;bottom=0;fontFamily=Garamond;fontStyle=0;fontSize=13;" vertex="1" parent="NpaNIxJUK8UgjH4EaC_c-1">
          <mxGeometry y="60" width="180" height="30" as="geometry" />
        </mxCell>
        <mxCell id="NpaNIxJUK8UgjH4EaC_c-6" value="" style="shape=partialRectangle;connectable=0;fillColor=none;top=0;left=0;bottom=0;right=0;editable=1;overflow=hidden;whiteSpace=wrap;html=1;fontFamily=Garamond;fontStyle=0;fontSize=13;" vertex="1" parent="NpaNIxJUK8UgjH4EaC_c-5">
          <mxGeometry width="30" height="30" as="geometry">
            <mxRectangle width="30" height="30" as="alternateBounds" />
          </mxGeometry>
        </mxCell>
        <mxCell id="NpaNIxJUK8UgjH4EaC_c-7" value="&lt;span style=&quot;font-size: 13px;&quot;&gt;AgencyName&lt;/span&gt;" style="shape=partialRectangle;connectable=0;fillColor=none;top=0;left=0;bottom=0;right=0;align=left;spacingLeft=6;overflow=hidden;whiteSpace=wrap;html=1;fontFamily=Garamond;fontStyle=0;fontSize=13;" vertex="1" parent="NpaNIxJUK8UgjH4EaC_c-5">
          <mxGeometry x="30" width="150" height="30" as="geometry">
            <mxRectangle width="150" height="30" as="alternateBounds" />
          </mxGeometry>
        </mxCell>
        <mxCell id="NpaNIxJUK8UgjH4EaC_c-14" value="&lt;span style=&quot;font-size: 13px; text-align: start; white-space: normal;&quot;&gt;EmpMaster&lt;/span&gt;" style="shape=table;startSize=30;container=1;collapsible=1;childLayout=tableLayout;fixedRows=1;rowLines=0;fontStyle=0;align=center;resizeLast=1;html=1;fontFamily=Garamond;fontSize=13;" vertex="1" parent="1">
          <mxGeometry x="-38" y="250" width="180" height="120" as="geometry" />
        </mxCell>
        <mxCell id="NpaNIxJUK8UgjH4EaC_c-15" value="" style="shape=tableRow;horizontal=0;startSize=0;swimlaneHead=0;swimlaneBody=0;fillColor=none;collapsible=0;dropTarget=0;points=[[0,0.5],[1,0.5]];portConstraint=eastwest;top=0;left=0;right=0;bottom=1;fontFamily=Garamond;fontStyle=0;fontSize=13;" vertex="1" parent="NpaNIxJUK8UgjH4EaC_c-14">
          <mxGeometry y="30" width="180" height="30" as="geometry" />
        </mxCell>
        <mxCell id="NpaNIxJUK8UgjH4EaC_c-16" value="PK" style="shape=partialRectangle;connectable=0;fillColor=none;top=0;left=0;bottom=0;right=0;fontStyle=0;overflow=hidden;whiteSpace=wrap;html=1;fontFamily=Garamond;fontSize=13;" vertex="1" parent="NpaNIxJUK8UgjH4EaC_c-15">
          <mxGeometry width="30" height="30" as="geometry">
            <mxRectangle width="30" height="30" as="alternateBounds" />
          </mxGeometry>
        </mxCell>
        <mxCell id="NpaNIxJUK8UgjH4EaC_c-17" value="&lt;span style=&quot;font-size: 13px; text-decoration: none;&quot;&gt;EmployeeID&lt;/span&gt;" style="shape=partialRectangle;connectable=0;fillColor=none;top=0;left=0;bottom=0;right=0;align=left;spacingLeft=6;fontStyle=4;overflow=hidden;whiteSpace=wrap;html=1;fontFamily=Garamond;fontSize=13;" vertex="1" parent="NpaNIxJUK8UgjH4EaC_c-15">
          <mxGeometry x="30" width="150" height="30" as="geometry">
            <mxRectangle width="150" height="30" as="alternateBounds" />
          </mxGeometry>
        </mxCell>
        <mxCell id="NpaNIxJUK8UgjH4EaC_c-18" value="" style="shape=tableRow;horizontal=0;startSize=0;swimlaneHead=0;swimlaneBody=0;fillColor=none;collapsible=0;dropTarget=0;points=[[0,0.5],[1,0.5]];portConstraint=eastwest;top=0;left=0;right=0;bottom=0;fontFamily=Garamond;fontStyle=0;fontSize=13;" vertex="1" parent="NpaNIxJUK8UgjH4EaC_c-14">
          <mxGeometry y="60" width="180" height="30" as="geometry" />
        </mxCell>
        <mxCell id="NpaNIxJUK8UgjH4EaC_c-19" value="" style="shape=partialRectangle;connectable=0;fillColor=none;top=0;left=0;bottom=0;right=0;editable=1;overflow=hidden;whiteSpace=wrap;html=1;fontFamily=Garamond;fontStyle=0;fontSize=13;" vertex="1" parent="NpaNIxJUK8UgjH4EaC_c-18">
          <mxGeometry width="30" height="30" as="geometry">
            <mxRectangle width="30" height="30" as="alternateBounds" />
          </mxGeometry>
        </mxCell>
        <mxCell id="NpaNIxJUK8UgjH4EaC_c-20" value="&lt;span style=&quot;font-size: 13px;&quot;&gt;LastName&lt;/span&gt;" style="shape=partialRectangle;connectable=0;fillColor=none;top=0;left=0;bottom=0;right=0;align=left;spacingLeft=6;overflow=hidden;whiteSpace=wrap;html=1;fontFamily=Garamond;fontStyle=0;fontSize=13;" vertex="1" parent="NpaNIxJUK8UgjH4EaC_c-18">
          <mxGeometry x="30" width="150" height="30" as="geometry">
            <mxRectangle width="150" height="30" as="alternateBounds" />
          </mxGeometry>
        </mxCell>
        <mxCell id="NpaNIxJUK8UgjH4EaC_c-21" value="" style="shape=tableRow;horizontal=0;startSize=0;swimlaneHead=0;swimlaneBody=0;fillColor=none;collapsible=0;dropTarget=0;points=[[0,0.5],[1,0.5]];portConstraint=eastwest;top=0;left=0;right=0;bottom=0;fontFamily=Garamond;fontStyle=0;fontSize=13;" vertex="1" parent="NpaNIxJUK8UgjH4EaC_c-14">
          <mxGeometry y="90" width="180" height="30" as="geometry" />
        </mxCell>
        <mxCell id="NpaNIxJUK8UgjH4EaC_c-22" value="" style="shape=partialRectangle;connectable=0;fillColor=none;top=0;left=0;bottom=0;right=0;editable=1;overflow=hidden;whiteSpace=wrap;html=1;fontFamily=Garamond;fontStyle=0;fontSize=13;" vertex="1" parent="NpaNIxJUK8UgjH4EaC_c-21">
          <mxGeometry width="30" height="30" as="geometry">
            <mxRectangle width="30" height="30" as="alternateBounds" />
          </mxGeometry>
        </mxCell>
        <mxCell id="NpaNIxJUK8UgjH4EaC_c-23" value="&lt;span style=&quot;font-size: 13px;&quot;&gt;FirstName&lt;/span&gt;" style="shape=partialRectangle;connectable=0;fillColor=none;top=0;left=0;bottom=0;right=0;align=left;spacingLeft=6;overflow=hidden;whiteSpace=wrap;html=1;fontFamily=Garamond;fontStyle=0;fontSize=13;" vertex="1" parent="NpaNIxJUK8UgjH4EaC_c-21">
          <mxGeometry x="30" width="150" height="30" as="geometry">
            <mxRectangle width="150" height="30" as="alternateBounds" />
          </mxGeometry>
        </mxCell>
        <mxCell id="NpaNIxJUK8UgjH4EaC_c-27" value="&lt;span style=&quot;font-size: 13px; text-align: start; white-space: normal;&quot;&gt;TittleMaster&amp;nbsp;&lt;/span&gt;" style="shape=table;startSize=30;container=1;collapsible=1;childLayout=tableLayout;fixedRows=1;rowLines=0;fontStyle=0;align=center;resizeLast=1;html=1;fontFamily=Garamond;fontSize=13;" vertex="1" parent="1">
          <mxGeometry x="223" y="6" width="180" height="90" as="geometry" />
        </mxCell>
        <mxCell id="NpaNIxJUK8UgjH4EaC_c-28" value="" style="shape=tableRow;horizontal=0;startSize=0;swimlaneHead=0;swimlaneBody=0;fillColor=none;collapsible=0;dropTarget=0;points=[[0,0.5],[1,0.5]];portConstraint=eastwest;top=0;left=0;right=0;bottom=1;fontFamily=Garamond;fontStyle=0;fontSize=13;" vertex="1" parent="NpaNIxJUK8UgjH4EaC_c-27">
          <mxGeometry y="30" width="180" height="30" as="geometry" />
        </mxCell>
        <mxCell id="NpaNIxJUK8UgjH4EaC_c-29" value="PK" style="shape=partialRectangle;connectable=0;fillColor=none;top=0;left=0;bottom=0;right=0;fontStyle=0;overflow=hidden;whiteSpace=wrap;html=1;fontFamily=Garamond;fontSize=13;" vertex="1" parent="NpaNIxJUK8UgjH4EaC_c-28">
          <mxGeometry width="30" height="30" as="geometry">
            <mxRectangle width="30" height="30" as="alternateBounds" />
          </mxGeometry>
        </mxCell>
        <mxCell id="NpaNIxJUK8UgjH4EaC_c-30" value="&lt;span style=&quot;font-size: 13px; text-decoration: none;&quot;&gt;TitleCode&lt;/span&gt;" style="shape=partialRectangle;connectable=0;fillColor=none;top=0;left=0;bottom=0;right=0;align=left;spacingLeft=6;fontStyle=4;overflow=hidden;whiteSpace=wrap;html=1;fontFamily=Garamond;fontSize=13;" vertex="1" parent="NpaNIxJUK8UgjH4EaC_c-28">
          <mxGeometry x="30" width="150" height="30" as="geometry">
            <mxRectangle width="150" height="30" as="alternateBounds" />
          </mxGeometry>
        </mxCell>
        <mxCell id="NpaNIxJUK8UgjH4EaC_c-31" value="" style="shape=tableRow;horizontal=0;startSize=0;swimlaneHead=0;swimlaneBody=0;fillColor=none;collapsible=0;dropTarget=0;points=[[0,0.5],[1,0.5]];portConstraint=eastwest;top=0;left=0;right=0;bottom=0;fontFamily=Garamond;fontStyle=0;fontSize=13;" vertex="1" parent="NpaNIxJUK8UgjH4EaC_c-27">
          <mxGeometry y="60" width="180" height="30" as="geometry" />
        </mxCell>
        <mxCell id="NpaNIxJUK8UgjH4EaC_c-32" value="" style="shape=partialRectangle;connectable=0;fillColor=none;top=0;left=0;bottom=0;right=0;editable=1;overflow=hidden;whiteSpace=wrap;html=1;fontFamily=Garamond;fontStyle=0;fontSize=13;" vertex="1" parent="NpaNIxJUK8UgjH4EaC_c-31">
          <mxGeometry width="30" height="30" as="geometry">
            <mxRectangle width="30" height="30" as="alternateBounds" />
          </mxGeometry>
        </mxCell>
        <mxCell id="NpaNIxJUK8UgjH4EaC_c-33" value="&lt;span style=&quot;font-size: 13px;&quot;&gt;TitleDescription&lt;/span&gt;" style="shape=partialRectangle;connectable=0;fillColor=none;top=0;left=0;bottom=0;right=0;align=left;spacingLeft=6;overflow=hidden;whiteSpace=wrap;html=1;fontFamily=Garamond;fontStyle=0;fontSize=13;" vertex="1" parent="NpaNIxJUK8UgjH4EaC_c-31">
          <mxGeometry x="30" width="150" height="30" as="geometry">
            <mxRectangle width="150" height="30" as="alternateBounds" />
          </mxGeometry>
        </mxCell>
        <mxCell id="NpaNIxJUK8UgjH4EaC_c-40" value="&lt;span style=&quot;font-size: 13px; text-align: start; white-space: normal;&quot;&gt;nyc_payrol{year}&lt;/span&gt;&lt;span style=&quot;font-size: 13px; text-align: start; white-space: normal;&quot;&gt;&amp;nbsp;&lt;/span&gt;" style="shape=table;startSize=30;container=1;collapsible=1;childLayout=tableLayout;fixedRows=1;rowLines=0;fontStyle=0;align=center;resizeLast=1;html=1;fontFamily=Garamond;fontSize=13;" vertex="1" parent="1">
          <mxGeometry x="225" y="232" width="198" height="540" as="geometry" />
        </mxCell>
        <mxCell id="NpaNIxJUK8UgjH4EaC_c-41" value="" style="shape=tableRow;horizontal=0;startSize=0;swimlaneHead=0;swimlaneBody=0;fillColor=none;collapsible=0;dropTarget=0;points=[[0,0.5],[1,0.5]];portConstraint=eastwest;top=0;left=0;right=0;bottom=1;fontFamily=Garamond;fontStyle=0;fontSize=13;" vertex="1" parent="NpaNIxJUK8UgjH4EaC_c-40">
          <mxGeometry y="30" width="198" height="30" as="geometry" />
        </mxCell>
        <mxCell id="NpaNIxJUK8UgjH4EaC_c-42" value="" style="shape=partialRectangle;connectable=0;fillColor=none;top=0;left=0;bottom=0;right=0;fontStyle=0;overflow=hidden;whiteSpace=wrap;html=1;fontFamily=Garamond;fontSize=13;" vertex="1" parent="NpaNIxJUK8UgjH4EaC_c-41">
          <mxGeometry width="30" height="30" as="geometry">
            <mxRectangle width="30" height="30" as="alternateBounds" />
          </mxGeometry>
        </mxCell>
        <mxCell id="NpaNIxJUK8UgjH4EaC_c-43" value="&lt;span style=&quot;font-size: 13px; text-decoration: none;&quot;&gt;FiscalYear&lt;/span&gt;" style="shape=partialRectangle;connectable=0;fillColor=none;top=0;left=0;bottom=0;right=0;align=left;spacingLeft=6;fontStyle=4;overflow=hidden;whiteSpace=wrap;html=1;fontFamily=Garamond;fontSize=13;" vertex="1" parent="NpaNIxJUK8UgjH4EaC_c-41">
          <mxGeometry x="30" width="168" height="30" as="geometry">
            <mxRectangle width="168" height="30" as="alternateBounds" />
          </mxGeometry>
        </mxCell>
        <mxCell id="NpaNIxJUK8UgjH4EaC_c-44" value="" style="shape=tableRow;horizontal=0;startSize=0;swimlaneHead=0;swimlaneBody=0;fillColor=none;collapsible=0;dropTarget=0;points=[[0,0.5],[1,0.5]];portConstraint=eastwest;top=0;left=0;right=0;bottom=0;fontFamily=Garamond;fontStyle=0;fontSize=13;" vertex="1" parent="NpaNIxJUK8UgjH4EaC_c-40">
          <mxGeometry y="60" width="198" height="30" as="geometry" />
        </mxCell>
        <mxCell id="NpaNIxJUK8UgjH4EaC_c-45" value="" style="shape=partialRectangle;connectable=0;fillColor=none;top=0;left=0;bottom=0;right=0;editable=1;overflow=hidden;whiteSpace=wrap;html=1;fontFamily=Garamond;fontStyle=0;fontSize=13;" vertex="1" parent="NpaNIxJUK8UgjH4EaC_c-44">
          <mxGeometry width="30" height="30" as="geometry">
            <mxRectangle width="30" height="30" as="alternateBounds" />
          </mxGeometry>
        </mxCell>
        <mxCell id="NpaNIxJUK8UgjH4EaC_c-46" value="&lt;span style=&quot;font-size: 13px;&quot;&gt;PayrollNumber&lt;/span&gt;" style="shape=partialRectangle;connectable=0;fillColor=none;top=0;left=0;bottom=0;right=0;align=left;spacingLeft=6;overflow=hidden;whiteSpace=wrap;html=1;fontFamily=Garamond;fontStyle=0;fontSize=13;" vertex="1" parent="NpaNIxJUK8UgjH4EaC_c-44">
          <mxGeometry x="30" width="168" height="30" as="geometry">
            <mxRectangle width="168" height="30" as="alternateBounds" />
          </mxGeometry>
        </mxCell>
        <mxCell id="NpaNIxJUK8UgjH4EaC_c-47" value="" style="shape=tableRow;horizontal=0;startSize=0;swimlaneHead=0;swimlaneBody=0;fillColor=none;collapsible=0;dropTarget=0;points=[[0,0.5],[1,0.5]];portConstraint=eastwest;top=0;left=0;right=0;bottom=0;fontFamily=Garamond;fontStyle=0;fontSize=13;" vertex="1" parent="NpaNIxJUK8UgjH4EaC_c-40">
          <mxGeometry y="90" width="198" height="30" as="geometry" />
        </mxCell>
        <mxCell id="NpaNIxJUK8UgjH4EaC_c-48" value="FK" style="shape=partialRectangle;connectable=0;fillColor=none;top=0;left=0;bottom=0;right=0;editable=1;overflow=hidden;whiteSpace=wrap;html=1;fontFamily=Garamond;fontStyle=0;fontSize=13;" vertex="1" parent="NpaNIxJUK8UgjH4EaC_c-47">
          <mxGeometry width="30" height="30" as="geometry">
            <mxRectangle width="30" height="30" as="alternateBounds" />
          </mxGeometry>
        </mxCell>
        <mxCell id="NpaNIxJUK8UgjH4EaC_c-49" value="&lt;span style=&quot;font-size: 13px;&quot;&gt;AgencyID&lt;/span&gt;" style="shape=partialRectangle;connectable=0;fillColor=none;top=0;left=0;bottom=0;right=0;align=left;spacingLeft=6;overflow=hidden;whiteSpace=wrap;html=1;fontFamily=Garamond;fontStyle=0;fontSize=13;" vertex="1" parent="NpaNIxJUK8UgjH4EaC_c-47">
          <mxGeometry x="30" width="168" height="30" as="geometry">
            <mxRectangle width="168" height="30" as="alternateBounds" />
          </mxGeometry>
        </mxCell>
        <mxCell id="NpaNIxJUK8UgjH4EaC_c-50" value="" style="shape=tableRow;horizontal=0;startSize=0;swimlaneHead=0;swimlaneBody=0;fillColor=none;collapsible=0;dropTarget=0;points=[[0,0.5],[1,0.5]];portConstraint=eastwest;top=0;left=0;right=0;bottom=0;fontFamily=Garamond;fontStyle=0;fontSize=13;" vertex="1" parent="NpaNIxJUK8UgjH4EaC_c-40">
          <mxGeometry y="120" width="198" height="30" as="geometry" />
        </mxCell>
        <mxCell id="NpaNIxJUK8UgjH4EaC_c-51" value="FK" style="shape=partialRectangle;connectable=0;fillColor=none;top=0;left=0;bottom=0;right=0;editable=1;overflow=hidden;whiteSpace=wrap;html=1;fontFamily=Garamond;fontStyle=0;fontSize=13;" vertex="1" parent="NpaNIxJUK8UgjH4EaC_c-50">
          <mxGeometry width="30" height="30" as="geometry">
            <mxRectangle width="30" height="30" as="alternateBounds" />
          </mxGeometry>
        </mxCell>
        <mxCell id="NpaNIxJUK8UgjH4EaC_c-52" value="&lt;span style=&quot;font-size: 13px;&quot;&gt;EmployeeID&lt;/span&gt;" style="shape=partialRectangle;connectable=0;fillColor=none;top=0;left=0;bottom=0;right=0;align=left;spacingLeft=6;overflow=hidden;whiteSpace=wrap;html=1;fontFamily=Garamond;fontStyle=0;fontSize=13;" vertex="1" parent="NpaNIxJUK8UgjH4EaC_c-50">
          <mxGeometry x="30" width="168" height="30" as="geometry">
            <mxRectangle width="168" height="30" as="alternateBounds" />
          </mxGeometry>
        </mxCell>
        <mxCell id="NpaNIxJUK8UgjH4EaC_c-53" value="" style="shape=tableRow;horizontal=0;startSize=0;swimlaneHead=0;swimlaneBody=0;fillColor=none;collapsible=0;dropTarget=0;points=[[0,0.5],[1,0.5]];portConstraint=eastwest;top=0;left=0;right=0;bottom=0;fontFamily=Garamond;fontStyle=0;fontSize=13;" vertex="1" parent="NpaNIxJUK8UgjH4EaC_c-40">
          <mxGeometry y="150" width="198" height="30" as="geometry" />
        </mxCell>
        <mxCell id="NpaNIxJUK8UgjH4EaC_c-54" value="" style="shape=partialRectangle;connectable=0;fillColor=none;top=0;left=0;bottom=0;right=0;editable=1;overflow=hidden;whiteSpace=wrap;html=1;fontFamily=Garamond;fontStyle=0;fontSize=13;" vertex="1" parent="NpaNIxJUK8UgjH4EaC_c-53">
          <mxGeometry width="30" height="30" as="geometry">
            <mxRectangle width="30" height="30" as="alternateBounds" />
          </mxGeometry>
        </mxCell>
        <mxCell id="NpaNIxJUK8UgjH4EaC_c-55" value="&lt;span style=&quot;font-size: 13px;&quot;&gt;LastName&lt;/span&gt;" style="shape=partialRectangle;connectable=0;fillColor=none;top=0;left=0;bottom=0;right=0;align=left;spacingLeft=6;overflow=hidden;whiteSpace=wrap;html=1;fontFamily=Garamond;fontStyle=0;fontSize=13;" vertex="1" parent="NpaNIxJUK8UgjH4EaC_c-53">
          <mxGeometry x="30" width="168" height="30" as="geometry">
            <mxRectangle width="168" height="30" as="alternateBounds" />
          </mxGeometry>
        </mxCell>
        <mxCell id="NpaNIxJUK8UgjH4EaC_c-56" value="" style="shape=tableRow;horizontal=0;startSize=0;swimlaneHead=0;swimlaneBody=0;fillColor=none;collapsible=0;dropTarget=0;points=[[0,0.5],[1,0.5]];portConstraint=eastwest;top=0;left=0;right=0;bottom=0;fontFamily=Garamond;fontStyle=0;fontSize=13;" vertex="1" parent="NpaNIxJUK8UgjH4EaC_c-40">
          <mxGeometry y="180" width="198" height="30" as="geometry" />
        </mxCell>
        <mxCell id="NpaNIxJUK8UgjH4EaC_c-57" value="" style="shape=partialRectangle;connectable=0;fillColor=none;top=0;left=0;bottom=0;right=0;editable=1;overflow=hidden;whiteSpace=wrap;html=1;fontFamily=Garamond;fontStyle=0;fontSize=13;" vertex="1" parent="NpaNIxJUK8UgjH4EaC_c-56">
          <mxGeometry width="30" height="30" as="geometry">
            <mxRectangle width="30" height="30" as="alternateBounds" />
          </mxGeometry>
        </mxCell>
        <mxCell id="NpaNIxJUK8UgjH4EaC_c-58" value="&lt;span style=&quot;font-size: 13px;&quot;&gt;FirstName&lt;/span&gt;" style="shape=partialRectangle;connectable=0;fillColor=none;top=0;left=0;bottom=0;right=0;align=left;spacingLeft=6;overflow=hidden;whiteSpace=wrap;html=1;fontFamily=Garamond;fontStyle=0;fontSize=13;" vertex="1" parent="NpaNIxJUK8UgjH4EaC_c-56">
          <mxGeometry x="30" width="168" height="30" as="geometry">
            <mxRectangle width="168" height="30" as="alternateBounds" />
          </mxGeometry>
        </mxCell>
        <mxCell id="NpaNIxJUK8UgjH4EaC_c-59" value="" style="shape=tableRow;horizontal=0;startSize=0;swimlaneHead=0;swimlaneBody=0;fillColor=none;collapsible=0;dropTarget=0;points=[[0,0.5],[1,0.5]];portConstraint=eastwest;top=0;left=0;right=0;bottom=0;fontFamily=Garamond;fontStyle=0;fontSize=13;" vertex="1" parent="NpaNIxJUK8UgjH4EaC_c-40">
          <mxGeometry y="210" width="198" height="30" as="geometry" />
        </mxCell>
        <mxCell id="NpaNIxJUK8UgjH4EaC_c-60" value="" style="shape=partialRectangle;connectable=0;fillColor=none;top=0;left=0;bottom=0;right=0;editable=1;overflow=hidden;whiteSpace=wrap;html=1;fontFamily=Garamond;fontStyle=0;fontSize=13;" vertex="1" parent="NpaNIxJUK8UgjH4EaC_c-59">
          <mxGeometry width="30" height="30" as="geometry">
            <mxRectangle width="30" height="30" as="alternateBounds" />
          </mxGeometry>
        </mxCell>
        <mxCell id="NpaNIxJUK8UgjH4EaC_c-61" value="&lt;span style=&quot;font-size: 13px;&quot;&gt;AgencyStartDate&lt;/span&gt;" style="shape=partialRectangle;connectable=0;fillColor=none;top=0;left=0;bottom=0;right=0;align=left;spacingLeft=6;overflow=hidden;whiteSpace=wrap;html=1;fontFamily=Garamond;fontStyle=0;fontSize=13;" vertex="1" parent="NpaNIxJUK8UgjH4EaC_c-59">
          <mxGeometry x="30" width="168" height="30" as="geometry">
            <mxRectangle width="168" height="30" as="alternateBounds" />
          </mxGeometry>
        </mxCell>
        <mxCell id="NpaNIxJUK8UgjH4EaC_c-62" value="" style="shape=tableRow;horizontal=0;startSize=0;swimlaneHead=0;swimlaneBody=0;fillColor=none;collapsible=0;dropTarget=0;points=[[0,0.5],[1,0.5]];portConstraint=eastwest;top=0;left=0;right=0;bottom=0;fontFamily=Garamond;fontStyle=0;fontSize=13;" vertex="1" parent="NpaNIxJUK8UgjH4EaC_c-40">
          <mxGeometry y="240" width="198" height="30" as="geometry" />
        </mxCell>
        <mxCell id="NpaNIxJUK8UgjH4EaC_c-63" value="" style="shape=partialRectangle;connectable=0;fillColor=none;top=0;left=0;bottom=0;right=0;editable=1;overflow=hidden;whiteSpace=wrap;html=1;fontFamily=Garamond;fontStyle=0;fontSize=13;" vertex="1" parent="NpaNIxJUK8UgjH4EaC_c-62">
          <mxGeometry width="30" height="30" as="geometry">
            <mxRectangle width="30" height="30" as="alternateBounds" />
          </mxGeometry>
        </mxCell>
        <mxCell id="NpaNIxJUK8UgjH4EaC_c-64" value="&lt;span style=&quot;font-size: 13px;&quot;&gt;WorkLocationBorough&lt;/span&gt;" style="shape=partialRectangle;connectable=0;fillColor=none;top=0;left=0;bottom=0;right=0;align=left;spacingLeft=6;overflow=hidden;whiteSpace=wrap;html=1;fontFamily=Garamond;fontStyle=0;fontSize=13;" vertex="1" parent="NpaNIxJUK8UgjH4EaC_c-62">
          <mxGeometry x="30" width="168" height="30" as="geometry">
            <mxRectangle width="168" height="30" as="alternateBounds" />
          </mxGeometry>
        </mxCell>
        <mxCell id="NpaNIxJUK8UgjH4EaC_c-65" value="" style="shape=tableRow;horizontal=0;startSize=0;swimlaneHead=0;swimlaneBody=0;fillColor=none;collapsible=0;dropTarget=0;points=[[0,0.5],[1,0.5]];portConstraint=eastwest;top=0;left=0;right=0;bottom=0;fontFamily=Garamond;fontStyle=0;fontSize=13;" vertex="1" parent="NpaNIxJUK8UgjH4EaC_c-40">
          <mxGeometry y="270" width="198" height="30" as="geometry" />
        </mxCell>
        <mxCell id="NpaNIxJUK8UgjH4EaC_c-66" value="" style="shape=partialRectangle;connectable=0;fillColor=none;top=0;left=0;bottom=0;right=0;editable=1;overflow=hidden;whiteSpace=wrap;html=1;fontFamily=Garamond;fontStyle=0;fontSize=13;" vertex="1" parent="NpaNIxJUK8UgjH4EaC_c-65">
          <mxGeometry width="30" height="30" as="geometry">
            <mxRectangle width="30" height="30" as="alternateBounds" />
          </mxGeometry>
        </mxCell>
        <mxCell id="NpaNIxJUK8UgjH4EaC_c-67" value="&lt;span style=&quot;font-size: 13px;&quot;&gt;TitleCode&lt;/span&gt;" style="shape=partialRectangle;connectable=0;fillColor=none;top=0;left=0;bottom=0;right=0;align=left;spacingLeft=6;overflow=hidden;whiteSpace=wrap;html=1;fontFamily=Garamond;fontStyle=0;fontSize=13;" vertex="1" parent="NpaNIxJUK8UgjH4EaC_c-65">
          <mxGeometry x="30" width="168" height="30" as="geometry">
            <mxRectangle width="168" height="30" as="alternateBounds" />
          </mxGeometry>
        </mxCell>
        <mxCell id="NpaNIxJUK8UgjH4EaC_c-68" value="" style="shape=tableRow;horizontal=0;startSize=0;swimlaneHead=0;swimlaneBody=0;fillColor=none;collapsible=0;dropTarget=0;points=[[0,0.5],[1,0.5]];portConstraint=eastwest;top=0;left=0;right=0;bottom=0;fontFamily=Garamond;fontStyle=0;fontSize=13;" vertex="1" parent="NpaNIxJUK8UgjH4EaC_c-40">
          <mxGeometry y="300" width="198" height="30" as="geometry" />
        </mxCell>
        <mxCell id="NpaNIxJUK8UgjH4EaC_c-69" value="" style="shape=partialRectangle;connectable=0;fillColor=none;top=0;left=0;bottom=0;right=0;editable=1;overflow=hidden;whiteSpace=wrap;html=1;fontFamily=Garamond;fontStyle=0;fontSize=13;" vertex="1" parent="NpaNIxJUK8UgjH4EaC_c-68">
          <mxGeometry width="30" height="30" as="geometry">
            <mxRectangle width="30" height="30" as="alternateBounds" />
          </mxGeometry>
        </mxCell>
        <mxCell id="NpaNIxJUK8UgjH4EaC_c-70" value="&lt;span style=&quot;font-size: 13px;&quot;&gt;TitleDescription&lt;/span&gt;" style="shape=partialRectangle;connectable=0;fillColor=none;top=0;left=0;bottom=0;right=0;align=left;spacingLeft=6;overflow=hidden;whiteSpace=wrap;html=1;fontFamily=Garamond;fontStyle=0;fontSize=13;" vertex="1" parent="NpaNIxJUK8UgjH4EaC_c-68">
          <mxGeometry x="30" width="168" height="30" as="geometry">
            <mxRectangle width="168" height="30" as="alternateBounds" />
          </mxGeometry>
        </mxCell>
        <mxCell id="NpaNIxJUK8UgjH4EaC_c-71" value="" style="shape=tableRow;horizontal=0;startSize=0;swimlaneHead=0;swimlaneBody=0;fillColor=none;collapsible=0;dropTarget=0;points=[[0,0.5],[1,0.5]];portConstraint=eastwest;top=0;left=0;right=0;bottom=0;fontFamily=Garamond;fontStyle=0;fontSize=13;" vertex="1" parent="NpaNIxJUK8UgjH4EaC_c-40">
          <mxGeometry y="330" width="198" height="30" as="geometry" />
        </mxCell>
        <mxCell id="NpaNIxJUK8UgjH4EaC_c-72" value="" style="shape=partialRectangle;connectable=0;fillColor=none;top=0;left=0;bottom=0;right=0;editable=1;overflow=hidden;whiteSpace=wrap;html=1;fontFamily=Garamond;fontStyle=0;fontSize=13;" vertex="1" parent="NpaNIxJUK8UgjH4EaC_c-71">
          <mxGeometry width="30" height="30" as="geometry">
            <mxRectangle width="30" height="30" as="alternateBounds" />
          </mxGeometry>
        </mxCell>
        <mxCell id="NpaNIxJUK8UgjH4EaC_c-73" value="&lt;span style=&quot;font-size: 13px;&quot;&gt;LeaveStatusasofJune30&lt;/span&gt;" style="shape=partialRectangle;connectable=0;fillColor=none;top=0;left=0;bottom=0;right=0;align=left;spacingLeft=6;overflow=hidden;whiteSpace=wrap;html=1;fontFamily=Garamond;fontStyle=0;fontSize=13;" vertex="1" parent="NpaNIxJUK8UgjH4EaC_c-71">
          <mxGeometry x="30" width="168" height="30" as="geometry">
            <mxRectangle width="168" height="30" as="alternateBounds" />
          </mxGeometry>
        </mxCell>
        <mxCell id="NpaNIxJUK8UgjH4EaC_c-74" value="" style="shape=tableRow;horizontal=0;startSize=0;swimlaneHead=0;swimlaneBody=0;fillColor=none;collapsible=0;dropTarget=0;points=[[0,0.5],[1,0.5]];portConstraint=eastwest;top=0;left=0;right=0;bottom=0;fontFamily=Garamond;fontStyle=0;fontSize=13;" vertex="1" parent="NpaNIxJUK8UgjH4EaC_c-40">
          <mxGeometry y="360" width="198" height="30" as="geometry" />
        </mxCell>
        <mxCell id="NpaNIxJUK8UgjH4EaC_c-75" value="" style="shape=partialRectangle;connectable=0;fillColor=none;top=0;left=0;bottom=0;right=0;editable=1;overflow=hidden;whiteSpace=wrap;html=1;fontFamily=Garamond;fontStyle=0;fontSize=13;" vertex="1" parent="NpaNIxJUK8UgjH4EaC_c-74">
          <mxGeometry width="30" height="30" as="geometry">
            <mxRectangle width="30" height="30" as="alternateBounds" />
          </mxGeometry>
        </mxCell>
        <mxCell id="NpaNIxJUK8UgjH4EaC_c-76" value="&lt;span style=&quot;font-size: 13px;&quot;&gt;BaseSalary&lt;/span&gt;" style="shape=partialRectangle;connectable=0;fillColor=none;top=0;left=0;bottom=0;right=0;align=left;spacingLeft=6;overflow=hidden;whiteSpace=wrap;html=1;fontFamily=Garamond;fontStyle=0;fontSize=13;" vertex="1" parent="NpaNIxJUK8UgjH4EaC_c-74">
          <mxGeometry x="30" width="168" height="30" as="geometry">
            <mxRectangle width="168" height="30" as="alternateBounds" />
          </mxGeometry>
        </mxCell>
        <mxCell id="NpaNIxJUK8UgjH4EaC_c-77" value="" style="shape=tableRow;horizontal=0;startSize=0;swimlaneHead=0;swimlaneBody=0;fillColor=none;collapsible=0;dropTarget=0;points=[[0,0.5],[1,0.5]];portConstraint=eastwest;top=0;left=0;right=0;bottom=0;fontFamily=Garamond;fontStyle=0;fontSize=13;" vertex="1" parent="NpaNIxJUK8UgjH4EaC_c-40">
          <mxGeometry y="390" width="198" height="30" as="geometry" />
        </mxCell>
        <mxCell id="NpaNIxJUK8UgjH4EaC_c-78" value="" style="shape=partialRectangle;connectable=0;fillColor=none;top=0;left=0;bottom=0;right=0;editable=1;overflow=hidden;whiteSpace=wrap;html=1;fontFamily=Garamond;fontStyle=0;fontSize=13;" vertex="1" parent="NpaNIxJUK8UgjH4EaC_c-77">
          <mxGeometry width="30" height="30" as="geometry">
            <mxRectangle width="30" height="30" as="alternateBounds" />
          </mxGeometry>
        </mxCell>
        <mxCell id="NpaNIxJUK8UgjH4EaC_c-79" value="&lt;span style=&quot;font-size: 13px;&quot;&gt;PayBasis&lt;/span&gt;" style="shape=partialRectangle;connectable=0;fillColor=none;top=0;left=0;bottom=0;right=0;align=left;spacingLeft=6;overflow=hidden;whiteSpace=wrap;html=1;fontFamily=Garamond;fontStyle=0;fontSize=13;" vertex="1" parent="NpaNIxJUK8UgjH4EaC_c-77">
          <mxGeometry x="30" width="168" height="30" as="geometry">
            <mxRectangle width="168" height="30" as="alternateBounds" />
          </mxGeometry>
        </mxCell>
        <mxCell id="NpaNIxJUK8UgjH4EaC_c-80" value="" style="shape=tableRow;horizontal=0;startSize=0;swimlaneHead=0;swimlaneBody=0;fillColor=none;collapsible=0;dropTarget=0;points=[[0,0.5],[1,0.5]];portConstraint=eastwest;top=0;left=0;right=0;bottom=0;fontFamily=Garamond;fontStyle=0;fontSize=13;" vertex="1" parent="NpaNIxJUK8UgjH4EaC_c-40">
          <mxGeometry y="420" width="198" height="30" as="geometry" />
        </mxCell>
        <mxCell id="NpaNIxJUK8UgjH4EaC_c-81" value="" style="shape=partialRectangle;connectable=0;fillColor=none;top=0;left=0;bottom=0;right=0;editable=1;overflow=hidden;whiteSpace=wrap;html=1;fontFamily=Garamond;fontStyle=0;fontSize=13;" vertex="1" parent="NpaNIxJUK8UgjH4EaC_c-80">
          <mxGeometry width="30" height="30" as="geometry">
            <mxRectangle width="30" height="30" as="alternateBounds" />
          </mxGeometry>
        </mxCell>
        <mxCell id="NpaNIxJUK8UgjH4EaC_c-82" value="&lt;span style=&quot;font-size: 13px;&quot;&gt;RegularHours&lt;/span&gt;" style="shape=partialRectangle;connectable=0;fillColor=none;top=0;left=0;bottom=0;right=0;align=left;spacingLeft=6;overflow=hidden;whiteSpace=wrap;html=1;fontFamily=Garamond;fontStyle=0;fontSize=13;" vertex="1" parent="NpaNIxJUK8UgjH4EaC_c-80">
          <mxGeometry x="30" width="168" height="30" as="geometry">
            <mxRectangle width="168" height="30" as="alternateBounds" />
          </mxGeometry>
        </mxCell>
        <mxCell id="NpaNIxJUK8UgjH4EaC_c-83" value="" style="shape=tableRow;horizontal=0;startSize=0;swimlaneHead=0;swimlaneBody=0;fillColor=none;collapsible=0;dropTarget=0;points=[[0,0.5],[1,0.5]];portConstraint=eastwest;top=0;left=0;right=0;bottom=0;fontFamily=Garamond;fontStyle=0;fontSize=13;" vertex="1" parent="NpaNIxJUK8UgjH4EaC_c-40">
          <mxGeometry y="450" width="198" height="30" as="geometry" />
        </mxCell>
        <mxCell id="NpaNIxJUK8UgjH4EaC_c-84" value="" style="shape=partialRectangle;connectable=0;fillColor=none;top=0;left=0;bottom=0;right=0;editable=1;overflow=hidden;whiteSpace=wrap;html=1;fontFamily=Garamond;fontStyle=0;fontSize=13;" vertex="1" parent="NpaNIxJUK8UgjH4EaC_c-83">
          <mxGeometry width="30" height="30" as="geometry">
            <mxRectangle width="30" height="30" as="alternateBounds" />
          </mxGeometry>
        </mxCell>
        <mxCell id="NpaNIxJUK8UgjH4EaC_c-85" value="&lt;span style=&quot;font-size: 13px;&quot;&gt;RegularGrossPaid&lt;/span&gt;" style="shape=partialRectangle;connectable=0;fillColor=none;top=0;left=0;bottom=0;right=0;align=left;spacingLeft=6;overflow=hidden;whiteSpace=wrap;html=1;fontFamily=Garamond;fontStyle=0;fontSize=13;" vertex="1" parent="NpaNIxJUK8UgjH4EaC_c-83">
          <mxGeometry x="30" width="168" height="30" as="geometry">
            <mxRectangle width="168" height="30" as="alternateBounds" />
          </mxGeometry>
        </mxCell>
        <mxCell id="NpaNIxJUK8UgjH4EaC_c-86" value="" style="shape=tableRow;horizontal=0;startSize=0;swimlaneHead=0;swimlaneBody=0;fillColor=none;collapsible=0;dropTarget=0;points=[[0,0.5],[1,0.5]];portConstraint=eastwest;top=0;left=0;right=0;bottom=0;fontFamily=Garamond;fontStyle=0;fontSize=13;" vertex="1" parent="NpaNIxJUK8UgjH4EaC_c-40">
          <mxGeometry y="480" width="198" height="30" as="geometry" />
        </mxCell>
        <mxCell id="NpaNIxJUK8UgjH4EaC_c-87" value="" style="shape=partialRectangle;connectable=0;fillColor=none;top=0;left=0;bottom=0;right=0;editable=1;overflow=hidden;whiteSpace=wrap;html=1;fontFamily=Garamond;fontStyle=0;fontSize=13;" vertex="1" parent="NpaNIxJUK8UgjH4EaC_c-86">
          <mxGeometry width="30" height="30" as="geometry">
            <mxRectangle width="30" height="30" as="alternateBounds" />
          </mxGeometry>
        </mxCell>
        <mxCell id="NpaNIxJUK8UgjH4EaC_c-88" value="&lt;span style=&quot;font-size: 13px;&quot;&gt;OTHours&lt;/span&gt;" style="shape=partialRectangle;connectable=0;fillColor=none;top=0;left=0;bottom=0;right=0;align=left;spacingLeft=6;overflow=hidden;whiteSpace=wrap;html=1;fontFamily=Garamond;fontStyle=0;fontSize=13;" vertex="1" parent="NpaNIxJUK8UgjH4EaC_c-86">
          <mxGeometry x="30" width="168" height="30" as="geometry">
            <mxRectangle width="168" height="30" as="alternateBounds" />
          </mxGeometry>
        </mxCell>
        <mxCell id="NpaNIxJUK8UgjH4EaC_c-89" value="" style="shape=tableRow;horizontal=0;startSize=0;swimlaneHead=0;swimlaneBody=0;fillColor=none;collapsible=0;dropTarget=0;points=[[0,0.5],[1,0.5]];portConstraint=eastwest;top=0;left=0;right=0;bottom=0;fontFamily=Garamond;fontStyle=0;fontSize=13;" vertex="1" parent="NpaNIxJUK8UgjH4EaC_c-40">
          <mxGeometry y="510" width="198" height="30" as="geometry" />
        </mxCell>
        <mxCell id="NpaNIxJUK8UgjH4EaC_c-90" value="" style="shape=partialRectangle;connectable=0;fillColor=none;top=0;left=0;bottom=0;right=0;editable=1;overflow=hidden;whiteSpace=wrap;html=1;fontFamily=Garamond;fontStyle=0;fontSize=13;" vertex="1" parent="NpaNIxJUK8UgjH4EaC_c-89">
          <mxGeometry width="30" height="30" as="geometry">
            <mxRectangle width="30" height="30" as="alternateBounds" />
          </mxGeometry>
        </mxCell>
        <mxCell id="NpaNIxJUK8UgjH4EaC_c-91" value="&lt;span style=&quot;font-size: 13px;&quot;&gt;TotalOTPaid&lt;/span&gt;" style="shape=partialRectangle;connectable=0;fillColor=none;top=0;left=0;bottom=0;right=0;align=left;spacingLeft=6;overflow=hidden;whiteSpace=wrap;html=1;fontFamily=Garamond;fontStyle=0;fontSize=13;" vertex="1" parent="NpaNIxJUK8UgjH4EaC_c-89">
          <mxGeometry x="30" width="168" height="30" as="geometry">
            <mxRectangle width="168" height="30" as="alternateBounds" />
          </mxGeometry>
        </mxCell>
        <mxCell id="NpaNIxJUK8UgjH4EaC_c-156" value="&lt;span style=&quot;text-align: start; white-space: normal;&quot;&gt;&lt;font style=&quot;font-size: 14px;&quot;&gt;FactPayroll&lt;/font&gt;&lt;/span&gt;" style="shape=table;startSize=30;container=1;collapsible=1;childLayout=tableLayout;fixedRows=1;rowLines=0;fontStyle=0;align=center;resizeLast=1;html=1;fontFamily=Garamond;fontSize=13;" vertex="1" parent="1">
          <mxGeometry x="1111" y="38" width="244" height="454" as="geometry" />
        </mxCell>
        <mxCell id="NpaNIxJUK8UgjH4EaC_c-157" value="" style="shape=tableRow;horizontal=0;startSize=0;swimlaneHead=0;swimlaneBody=0;fillColor=none;collapsible=0;dropTarget=0;points=[[0,0.5],[1,0.5]];portConstraint=eastwest;top=0;left=0;right=0;bottom=1;fontFamily=Garamond;fontStyle=0;fontSize=13;" vertex="1" parent="NpaNIxJUK8UgjH4EaC_c-156">
          <mxGeometry y="30" width="244" height="30" as="geometry" />
        </mxCell>
        <mxCell id="NpaNIxJUK8UgjH4EaC_c-158" value="PK" style="shape=partialRectangle;connectable=0;fillColor=none;top=0;left=0;bottom=0;right=0;fontStyle=0;overflow=hidden;whiteSpace=wrap;html=1;fontFamily=Garamond;fontSize=13;" vertex="1" parent="NpaNIxJUK8UgjH4EaC_c-157">
          <mxGeometry width="30" height="30" as="geometry">
            <mxRectangle width="30" height="30" as="alternateBounds" />
          </mxGeometry>
        </mxCell>
        <mxCell id="NpaNIxJUK8UgjH4EaC_c-159" value="&lt;span style=&quot;font-size: 13px; text-decoration: none;&quot;&gt;PayrollID&lt;/span&gt;" style="shape=partialRectangle;connectable=0;fillColor=none;top=0;left=0;bottom=0;right=0;align=left;spacingLeft=6;fontStyle=4;overflow=hidden;whiteSpace=wrap;html=1;fontFamily=Garamond;fontSize=13;" vertex="1" parent="NpaNIxJUK8UgjH4EaC_c-157">
          <mxGeometry x="30" width="214" height="30" as="geometry">
            <mxRectangle width="214" height="30" as="alternateBounds" />
          </mxGeometry>
        </mxCell>
        <mxCell id="NpaNIxJUK8UgjH4EaC_c-209" value="" style="shape=tableRow;horizontal=0;startSize=0;swimlaneHead=0;swimlaneBody=0;fillColor=none;collapsible=0;dropTarget=0;points=[[0,0.5],[1,0.5]];portConstraint=eastwest;top=0;left=0;right=0;bottom=0;fontFamily=Garamond;fontStyle=0;fontSize=13;" vertex="1" parent="NpaNIxJUK8UgjH4EaC_c-156">
          <mxGeometry y="60" width="244" height="30" as="geometry" />
        </mxCell>
        <mxCell id="NpaNIxJUK8UgjH4EaC_c-210" value="" style="shape=partialRectangle;connectable=0;fillColor=none;top=0;left=0;bottom=0;right=0;editable=1;overflow=hidden;whiteSpace=wrap;html=1;fontFamily=Garamond;fontStyle=0;fontSize=13;" vertex="1" parent="NpaNIxJUK8UgjH4EaC_c-209">
          <mxGeometry width="30" height="30" as="geometry">
            <mxRectangle width="30" height="30" as="alternateBounds" />
          </mxGeometry>
        </mxCell>
        <mxCell id="NpaNIxJUK8UgjH4EaC_c-211" value="&lt;span style=&quot;font-size: 13px;&quot;&gt;FiscalYear&lt;span style=&quot;white-space: pre;&quot;&gt;&#x9;&lt;/span&gt;&lt;span style=&quot;white-space: pre;&quot;&gt;&#x9;int&lt;/span&gt;&lt;/span&gt;" style="shape=partialRectangle;connectable=0;fillColor=none;top=0;left=0;bottom=0;right=0;align=left;spacingLeft=6;overflow=hidden;whiteSpace=wrap;html=1;fontFamily=Garamond;fontStyle=0;fontSize=13;" vertex="1" parent="NpaNIxJUK8UgjH4EaC_c-209">
          <mxGeometry x="30" width="214" height="30" as="geometry">
            <mxRectangle width="214" height="30" as="alternateBounds" />
          </mxGeometry>
        </mxCell>
        <mxCell id="NpaNIxJUK8UgjH4EaC_c-160" value="" style="shape=tableRow;horizontal=0;startSize=0;swimlaneHead=0;swimlaneBody=0;fillColor=none;collapsible=0;dropTarget=0;points=[[0,0.5],[1,0.5]];portConstraint=eastwest;top=0;left=0;right=0;bottom=0;fontFamily=Garamond;fontStyle=0;fontSize=13;" vertex="1" parent="NpaNIxJUK8UgjH4EaC_c-156">
          <mxGeometry y="90" width="244" height="30" as="geometry" />
        </mxCell>
        <mxCell id="NpaNIxJUK8UgjH4EaC_c-161" value="" style="shape=partialRectangle;connectable=0;fillColor=none;top=0;left=0;bottom=0;right=0;editable=1;overflow=hidden;whiteSpace=wrap;html=1;fontFamily=Garamond;fontStyle=0;fontSize=13;" vertex="1" parent="NpaNIxJUK8UgjH4EaC_c-160">
          <mxGeometry width="30" height="30" as="geometry">
            <mxRectangle width="30" height="30" as="alternateBounds" />
          </mxGeometry>
        </mxCell>
        <mxCell id="NpaNIxJUK8UgjH4EaC_c-162" value="&lt;span style=&quot;font-size: 13px;&quot;&gt;PayrollNumber&lt;span style=&quot;white-space: pre;&quot;&gt;&#x9;&lt;/span&gt;&lt;/span&gt;&lt;span style=&quot;white-space: pre;&quot;&gt;int&lt;/span&gt;" style="shape=partialRectangle;connectable=0;fillColor=none;top=0;left=0;bottom=0;right=0;align=left;spacingLeft=6;overflow=hidden;whiteSpace=wrap;html=1;fontFamily=Garamond;fontStyle=0;fontSize=13;" vertex="1" parent="NpaNIxJUK8UgjH4EaC_c-160">
          <mxGeometry x="30" width="214" height="30" as="geometry">
            <mxRectangle width="214" height="30" as="alternateBounds" />
          </mxGeometry>
        </mxCell>
        <mxCell id="NpaNIxJUK8UgjH4EaC_c-166" value="" style="shape=tableRow;horizontal=0;startSize=0;swimlaneHead=0;swimlaneBody=0;fillColor=none;collapsible=0;dropTarget=0;points=[[0,0.5],[1,0.5]];portConstraint=eastwest;top=0;left=0;right=0;bottom=0;fontFamily=Garamond;fontStyle=0;fontSize=13;" vertex="1" parent="NpaNIxJUK8UgjH4EaC_c-156">
          <mxGeometry y="120" width="244" height="30" as="geometry" />
        </mxCell>
        <mxCell id="NpaNIxJUK8UgjH4EaC_c-167" value="FK" style="shape=partialRectangle;connectable=0;fillColor=none;top=0;left=0;bottom=0;right=0;editable=1;overflow=hidden;whiteSpace=wrap;html=1;fontFamily=Garamond;fontStyle=0;fontSize=13;" vertex="1" parent="NpaNIxJUK8UgjH4EaC_c-166">
          <mxGeometry width="30" height="30" as="geometry">
            <mxRectangle width="30" height="30" as="alternateBounds" />
          </mxGeometry>
        </mxCell>
        <mxCell id="NpaNIxJUK8UgjH4EaC_c-168" value="&lt;span style=&quot;font-size: 13px;&quot;&gt;EmployeeID&lt;span style=&quot;white-space: pre;&quot;&gt;&#x9;&lt;/span&gt;&lt;span style=&quot;white-space: pre;&quot;&gt;&#x9;&lt;/span&gt;&lt;/span&gt;&lt;span style=&quot;white-space: pre;&quot;&gt;int&lt;/span&gt;" style="shape=partialRectangle;connectable=0;fillColor=none;top=0;left=0;bottom=0;right=0;align=left;spacingLeft=6;overflow=hidden;whiteSpace=wrap;html=1;fontFamily=Garamond;fontStyle=0;fontSize=13;" vertex="1" parent="NpaNIxJUK8UgjH4EaC_c-166">
          <mxGeometry x="30" width="214" height="30" as="geometry">
            <mxRectangle width="214" height="30" as="alternateBounds" />
          </mxGeometry>
        </mxCell>
        <mxCell id="NpaNIxJUK8UgjH4EaC_c-163" value="" style="shape=tableRow;horizontal=0;startSize=0;swimlaneHead=0;swimlaneBody=0;fillColor=none;collapsible=0;dropTarget=0;points=[[0,0.5],[1,0.5]];portConstraint=eastwest;top=0;left=0;right=0;bottom=0;fontFamily=Garamond;fontStyle=0;fontSize=13;" vertex="1" parent="NpaNIxJUK8UgjH4EaC_c-156">
          <mxGeometry y="150" width="244" height="30" as="geometry" />
        </mxCell>
        <mxCell id="NpaNIxJUK8UgjH4EaC_c-164" value="FK" style="shape=partialRectangle;connectable=0;fillColor=none;top=0;left=0;bottom=0;right=0;editable=1;overflow=hidden;whiteSpace=wrap;html=1;fontFamily=Garamond;fontStyle=0;fontSize=13;" vertex="1" parent="NpaNIxJUK8UgjH4EaC_c-163">
          <mxGeometry width="30" height="30" as="geometry">
            <mxRectangle width="30" height="30" as="alternateBounds" />
          </mxGeometry>
        </mxCell>
        <mxCell id="NpaNIxJUK8UgjH4EaC_c-165" value="&lt;span style=&quot;font-size: 13px;&quot;&gt;AgencyID&lt;span style=&quot;white-space: pre;&quot;&gt;&#x9;&lt;/span&gt;&lt;span style=&quot;white-space: pre;&quot;&gt;&#x9;&lt;/span&gt;&lt;/span&gt;&lt;span style=&quot;white-space: pre;&quot;&gt;int&lt;/span&gt;" style="shape=partialRectangle;connectable=0;fillColor=none;top=0;left=0;bottom=0;right=0;align=left;spacingLeft=6;overflow=hidden;whiteSpace=wrap;html=1;fontFamily=Garamond;fontStyle=0;fontSize=13;" vertex="1" parent="NpaNIxJUK8UgjH4EaC_c-163">
          <mxGeometry x="30" width="214" height="30" as="geometry">
            <mxRectangle width="214" height="30" as="alternateBounds" />
          </mxGeometry>
        </mxCell>
        <mxCell id="NpaNIxJUK8UgjH4EaC_c-181" value="" style="shape=tableRow;horizontal=0;startSize=0;swimlaneHead=0;swimlaneBody=0;fillColor=none;collapsible=0;dropTarget=0;points=[[0,0.5],[1,0.5]];portConstraint=eastwest;top=0;left=0;right=0;bottom=0;fontFamily=Garamond;fontStyle=0;fontSize=13;" vertex="1" parent="NpaNIxJUK8UgjH4EaC_c-156">
          <mxGeometry y="180" width="244" height="30" as="geometry" />
        </mxCell>
        <mxCell id="NpaNIxJUK8UgjH4EaC_c-182" value="FK" style="shape=partialRectangle;connectable=0;fillColor=none;top=0;left=0;bottom=0;right=0;editable=1;overflow=hidden;whiteSpace=wrap;html=1;fontFamily=Garamond;fontStyle=0;fontSize=13;" vertex="1" parent="NpaNIxJUK8UgjH4EaC_c-181">
          <mxGeometry width="30" height="30" as="geometry">
            <mxRectangle width="30" height="30" as="alternateBounds" />
          </mxGeometry>
        </mxCell>
        <mxCell id="NpaNIxJUK8UgjH4EaC_c-183" value="&lt;span style=&quot;font-size: 13px;&quot;&gt;TitleCode&lt;span style=&quot;white-space: pre;&quot;&gt;&#x9;&lt;/span&gt;&lt;span style=&quot;white-space: pre;&quot;&gt;&#x9;&lt;/span&gt;&lt;/span&gt;&lt;span style=&quot;white-space: pre;&quot;&gt;int&lt;/span&gt;" style="shape=partialRectangle;connectable=0;fillColor=none;top=0;left=0;bottom=0;right=0;align=left;spacingLeft=6;overflow=hidden;whiteSpace=wrap;html=1;fontFamily=Garamond;fontStyle=0;fontSize=13;" vertex="1" parent="NpaNIxJUK8UgjH4EaC_c-181">
          <mxGeometry x="30" width="214" height="30" as="geometry">
            <mxRectangle width="214" height="30" as="alternateBounds" />
          </mxGeometry>
        </mxCell>
        <mxCell id="NpaNIxJUK8UgjH4EaC_c-196" value="" style="shape=tableRow;horizontal=0;startSize=0;swimlaneHead=0;swimlaneBody=0;fillColor=none;collapsible=0;dropTarget=0;points=[[0,0.5],[1,0.5]];portConstraint=eastwest;top=0;left=0;right=0;bottom=0;fontFamily=Garamond;fontStyle=0;fontSize=13;" vertex="1" parent="NpaNIxJUK8UgjH4EaC_c-156">
          <mxGeometry y="210" width="244" height="30" as="geometry" />
        </mxCell>
        <mxCell id="NpaNIxJUK8UgjH4EaC_c-197" value="" style="shape=partialRectangle;connectable=0;fillColor=none;top=0;left=0;bottom=0;right=0;editable=1;overflow=hidden;whiteSpace=wrap;html=1;fontFamily=Garamond;fontStyle=0;fontSize=13;" vertex="1" parent="NpaNIxJUK8UgjH4EaC_c-196">
          <mxGeometry width="30" height="30" as="geometry">
            <mxRectangle width="30" height="30" as="alternateBounds" />
          </mxGeometry>
        </mxCell>
        <mxCell id="NpaNIxJUK8UgjH4EaC_c-198" value="&lt;span style=&quot;font-size: 13px;&quot;&gt;RegularHours&lt;span style=&quot;white-space: pre;&quot;&gt;&#x9;&lt;/span&gt;&lt;span style=&quot;white-space: pre;&quot;&gt;&#x9;&lt;/span&gt;&lt;/span&gt;&lt;span style=&quot;white-space: pre;&quot;&gt;decimal(10, 2)&lt;/span&gt;" style="shape=partialRectangle;connectable=0;fillColor=none;top=0;left=0;bottom=0;right=0;align=left;spacingLeft=6;overflow=hidden;whiteSpace=wrap;html=1;fontFamily=Garamond;fontStyle=0;fontSize=13;" vertex="1" parent="NpaNIxJUK8UgjH4EaC_c-196">
          <mxGeometry x="30" width="214" height="30" as="geometry">
            <mxRectangle width="214" height="30" as="alternateBounds" />
          </mxGeometry>
        </mxCell>
        <mxCell id="NpaNIxJUK8UgjH4EaC_c-199" value="" style="shape=tableRow;horizontal=0;startSize=0;swimlaneHead=0;swimlaneBody=0;fillColor=none;collapsible=0;dropTarget=0;points=[[0,0.5],[1,0.5]];portConstraint=eastwest;top=0;left=0;right=0;bottom=0;fontFamily=Garamond;fontStyle=0;fontSize=13;" vertex="1" parent="NpaNIxJUK8UgjH4EaC_c-156">
          <mxGeometry y="240" width="244" height="30" as="geometry" />
        </mxCell>
        <mxCell id="NpaNIxJUK8UgjH4EaC_c-200" value="" style="shape=partialRectangle;connectable=0;fillColor=none;top=0;left=0;bottom=0;right=0;editable=1;overflow=hidden;whiteSpace=wrap;html=1;fontFamily=Garamond;fontStyle=0;fontSize=13;" vertex="1" parent="NpaNIxJUK8UgjH4EaC_c-199">
          <mxGeometry width="30" height="30" as="geometry">
            <mxRectangle width="30" height="30" as="alternateBounds" />
          </mxGeometry>
        </mxCell>
        <mxCell id="NpaNIxJUK8UgjH4EaC_c-201" value="&lt;span style=&quot;font-size: 13px;&quot;&gt;RegularGrossPaid&lt;span style=&quot;white-space: pre;&quot;&gt;&#x9;&lt;/span&gt;&lt;/span&gt;&lt;span style=&quot;white-space: pre;&quot;&gt;decimal(10, 2)&lt;/span&gt;" style="shape=partialRectangle;connectable=0;fillColor=none;top=0;left=0;bottom=0;right=0;align=left;spacingLeft=6;overflow=hidden;whiteSpace=wrap;html=1;fontFamily=Garamond;fontStyle=0;fontSize=13;" vertex="1" parent="NpaNIxJUK8UgjH4EaC_c-199">
          <mxGeometry x="30" width="214" height="30" as="geometry">
            <mxRectangle width="214" height="30" as="alternateBounds" />
          </mxGeometry>
        </mxCell>
        <mxCell id="NpaNIxJUK8UgjH4EaC_c-190" value="" style="shape=tableRow;horizontal=0;startSize=0;swimlaneHead=0;swimlaneBody=0;fillColor=none;collapsible=0;dropTarget=0;points=[[0,0.5],[1,0.5]];portConstraint=eastwest;top=0;left=0;right=0;bottom=0;fontFamily=Garamond;fontStyle=0;fontSize=13;" vertex="1" parent="NpaNIxJUK8UgjH4EaC_c-156">
          <mxGeometry y="270" width="244" height="30" as="geometry" />
        </mxCell>
        <mxCell id="NpaNIxJUK8UgjH4EaC_c-191" value="" style="shape=partialRectangle;connectable=0;fillColor=none;top=0;left=0;bottom=0;right=0;editable=1;overflow=hidden;whiteSpace=wrap;html=1;fontFamily=Garamond;fontStyle=0;fontSize=13;" vertex="1" parent="NpaNIxJUK8UgjH4EaC_c-190">
          <mxGeometry width="30" height="30" as="geometry">
            <mxRectangle width="30" height="30" as="alternateBounds" />
          </mxGeometry>
        </mxCell>
        <mxCell id="NpaNIxJUK8UgjH4EaC_c-192" value="&lt;span style=&quot;font-size: 13px;&quot;&gt;BaseSalary&lt;span style=&quot;white-space: pre;&quot;&gt;&#x9;&lt;/span&gt;&lt;span style=&quot;white-space: pre;&quot;&gt;&#x9;&lt;/span&gt;&lt;/span&gt;&lt;span style=&quot;white-space: pre;&quot;&gt;decimal(10, 2)&lt;/span&gt;" style="shape=partialRectangle;connectable=0;fillColor=none;top=0;left=0;bottom=0;right=0;align=left;spacingLeft=6;overflow=hidden;whiteSpace=wrap;html=1;fontFamily=Garamond;fontStyle=0;fontSize=13;" vertex="1" parent="NpaNIxJUK8UgjH4EaC_c-190">
          <mxGeometry x="30" width="214" height="30" as="geometry">
            <mxRectangle width="214" height="30" as="alternateBounds" />
          </mxGeometry>
        </mxCell>
        <mxCell id="NpaNIxJUK8UgjH4EaC_c-202" value="" style="shape=tableRow;horizontal=0;startSize=0;swimlaneHead=0;swimlaneBody=0;fillColor=none;collapsible=0;dropTarget=0;points=[[0,0.5],[1,0.5]];portConstraint=eastwest;top=0;left=0;right=0;bottom=0;fontFamily=Garamond;fontStyle=0;fontSize=13;" vertex="1" parent="NpaNIxJUK8UgjH4EaC_c-156">
          <mxGeometry y="300" width="244" height="30" as="geometry" />
        </mxCell>
        <mxCell id="NpaNIxJUK8UgjH4EaC_c-203" value="" style="shape=partialRectangle;connectable=0;fillColor=none;top=0;left=0;bottom=0;right=0;editable=1;overflow=hidden;whiteSpace=wrap;html=1;fontFamily=Garamond;fontStyle=0;fontSize=13;" vertex="1" parent="NpaNIxJUK8UgjH4EaC_c-202">
          <mxGeometry width="30" height="30" as="geometry">
            <mxRectangle width="30" height="30" as="alternateBounds" />
          </mxGeometry>
        </mxCell>
        <mxCell id="NpaNIxJUK8UgjH4EaC_c-204" value="&lt;span style=&quot;font-size: 13px;&quot;&gt;OTHours&lt;span style=&quot;white-space: pre;&quot;&gt;&#x9;&lt;/span&gt;&lt;span style=&quot;white-space: pre;&quot;&gt;&#x9;&lt;/span&gt;&lt;span style=&quot;white-space: pre;&quot;&gt;&#x9;&lt;/span&gt;&lt;/span&gt;&lt;span style=&quot;white-space: pre;&quot;&gt;decimal(10, 2)&lt;/span&gt;" style="shape=partialRectangle;connectable=0;fillColor=none;top=0;left=0;bottom=0;right=0;align=left;spacingLeft=6;overflow=hidden;whiteSpace=wrap;html=1;fontFamily=Garamond;fontStyle=0;fontSize=13;" vertex="1" parent="NpaNIxJUK8UgjH4EaC_c-202">
          <mxGeometry x="30" width="214" height="30" as="geometry">
            <mxRectangle width="214" height="30" as="alternateBounds" />
          </mxGeometry>
        </mxCell>
        <mxCell id="NpaNIxJUK8UgjH4EaC_c-205" value="" style="shape=tableRow;horizontal=0;startSize=0;swimlaneHead=0;swimlaneBody=0;fillColor=none;collapsible=0;dropTarget=0;points=[[0,0.5],[1,0.5]];portConstraint=eastwest;top=0;left=0;right=0;bottom=0;fontFamily=Garamond;fontStyle=0;fontSize=13;" vertex="1" parent="NpaNIxJUK8UgjH4EaC_c-156">
          <mxGeometry y="330" width="244" height="30" as="geometry" />
        </mxCell>
        <mxCell id="NpaNIxJUK8UgjH4EaC_c-206" value="" style="shape=partialRectangle;connectable=0;fillColor=none;top=0;left=0;bottom=0;right=0;editable=1;overflow=hidden;whiteSpace=wrap;html=1;fontFamily=Garamond;fontStyle=0;fontSize=13;" vertex="1" parent="NpaNIxJUK8UgjH4EaC_c-205">
          <mxGeometry width="30" height="30" as="geometry">
            <mxRectangle width="30" height="30" as="alternateBounds" />
          </mxGeometry>
        </mxCell>
        <mxCell id="NpaNIxJUK8UgjH4EaC_c-207" value="&lt;span style=&quot;font-size: 13px;&quot;&gt;TotalOTPaid&lt;span style=&quot;white-space: pre;&quot;&gt;&#x9;&lt;/span&gt;&lt;span style=&quot;white-space: pre;&quot;&gt;&#x9;decimal(10, 2)&lt;/span&gt;&lt;span style=&quot;white-space: pre;&quot;&gt;&#x9;&lt;/span&gt;&lt;/span&gt;" style="shape=partialRectangle;connectable=0;fillColor=none;top=0;left=0;bottom=0;right=0;align=left;spacingLeft=6;overflow=hidden;whiteSpace=wrap;html=1;fontFamily=Garamond;fontStyle=0;fontSize=13;" vertex="1" parent="NpaNIxJUK8UgjH4EaC_c-205">
          <mxGeometry x="30" width="214" height="30" as="geometry">
            <mxRectangle width="214" height="30" as="alternateBounds" />
          </mxGeometry>
        </mxCell>
        <mxCell id="NpaNIxJUK8UgjH4EaC_c-271" value="" style="shape=tableRow;horizontal=0;startSize=0;swimlaneHead=0;swimlaneBody=0;fillColor=none;collapsible=0;dropTarget=0;points=[[0,0.5],[1,0.5]];portConstraint=eastwest;top=0;left=0;right=0;bottom=0;fontFamily=Garamond;fontStyle=0;fontSize=13;" vertex="1" parent="NpaNIxJUK8UgjH4EaC_c-156">
          <mxGeometry y="360" width="244" height="30" as="geometry" />
        </mxCell>
        <mxCell id="NpaNIxJUK8UgjH4EaC_c-272" value="" style="shape=partialRectangle;connectable=0;fillColor=none;top=0;left=0;bottom=0;right=0;editable=1;overflow=hidden;whiteSpace=wrap;html=1;fontFamily=Garamond;fontStyle=0;fontSize=13;" vertex="1" parent="NpaNIxJUK8UgjH4EaC_c-271">
          <mxGeometry width="30" height="30" as="geometry">
            <mxRectangle width="30" height="30" as="alternateBounds" />
          </mxGeometry>
        </mxCell>
        <mxCell id="NpaNIxJUK8UgjH4EaC_c-273" value="&lt;span style=&quot;font-size: 13px;&quot;&gt;TotalOtherPaid&lt;span style=&quot;white-space: pre;&quot;&gt;&#x9;&lt;/span&gt;&lt;span style=&quot;white-space: pre;&quot;&gt;decimal(10, 2)&lt;/span&gt;&lt;span style=&quot;white-space: pre;&quot;&gt;&#x9;&lt;/span&gt;&lt;/span&gt;" style="shape=partialRectangle;connectable=0;fillColor=none;top=0;left=0;bottom=0;right=0;align=left;spacingLeft=6;overflow=hidden;whiteSpace=wrap;html=1;fontFamily=Garamond;fontStyle=0;fontSize=13;" vertex="1" parent="NpaNIxJUK8UgjH4EaC_c-271">
          <mxGeometry x="30" width="214" height="30" as="geometry">
            <mxRectangle width="214" height="30" as="alternateBounds" />
          </mxGeometry>
        </mxCell>
        <mxCell id="NpaNIxJUK8UgjH4EaC_c-274" value="" style="shape=tableRow;horizontal=0;startSize=0;swimlaneHead=0;swimlaneBody=0;fillColor=none;collapsible=0;dropTarget=0;points=[[0,0.5],[1,0.5]];portConstraint=eastwest;top=0;left=0;right=0;bottom=0;fontFamily=Garamond;fontStyle=0;fontSize=13;" vertex="1" parent="NpaNIxJUK8UgjH4EaC_c-156">
          <mxGeometry y="390" width="244" height="30" as="geometry" />
        </mxCell>
        <mxCell id="NpaNIxJUK8UgjH4EaC_c-275" value="" style="shape=partialRectangle;connectable=0;fillColor=none;top=0;left=0;bottom=0;right=0;editable=1;overflow=hidden;whiteSpace=wrap;html=1;fontFamily=Garamond;fontStyle=0;fontSize=13;" vertex="1" parent="NpaNIxJUK8UgjH4EaC_c-274">
          <mxGeometry width="30" height="30" as="geometry">
            <mxRectangle width="30" height="30" as="alternateBounds" />
          </mxGeometry>
        </mxCell>
        <mxCell id="NpaNIxJUK8UgjH4EaC_c-276" value="&lt;span style=&quot;font-size: 13px;&quot;&gt;PayBasis&lt;span style=&quot;white-space: pre;&quot;&gt;&#x9;&lt;/span&gt;&lt;span style=&quot;white-space: pre;&quot;&gt;&#x9;&lt;span style=&quot;white-space: pre;&quot;&gt;&#x9;&lt;/span&gt;int&lt;/span&gt;&lt;/span&gt;" style="shape=partialRectangle;connectable=0;fillColor=none;top=0;left=0;bottom=0;right=0;align=left;spacingLeft=6;overflow=hidden;whiteSpace=wrap;html=1;fontFamily=Garamond;fontStyle=0;fontSize=13;" vertex="1" parent="NpaNIxJUK8UgjH4EaC_c-274">
          <mxGeometry x="30" width="214" height="30" as="geometry">
            <mxRectangle width="214" height="30" as="alternateBounds" />
          </mxGeometry>
        </mxCell>
        <mxCell id="NpaNIxJUK8UgjH4EaC_c-277" value="" style="shape=tableRow;horizontal=0;startSize=0;swimlaneHead=0;swimlaneBody=0;fillColor=none;collapsible=0;dropTarget=0;points=[[0,0.5],[1,0.5]];portConstraint=eastwest;top=0;left=0;right=0;bottom=0;fontFamily=Garamond;fontStyle=0;fontSize=13;" vertex="1" parent="NpaNIxJUK8UgjH4EaC_c-156">
          <mxGeometry y="420" width="244" height="30" as="geometry" />
        </mxCell>
        <mxCell id="NpaNIxJUK8UgjH4EaC_c-278" value="" style="shape=partialRectangle;connectable=0;fillColor=none;top=0;left=0;bottom=0;right=0;editable=1;overflow=hidden;whiteSpace=wrap;html=1;fontFamily=Garamond;fontStyle=0;fontSize=13;" vertex="1" parent="NpaNIxJUK8UgjH4EaC_c-277">
          <mxGeometry width="30" height="30" as="geometry">
            <mxRectangle width="30" height="30" as="alternateBounds" />
          </mxGeometry>
        </mxCell>
        <mxCell id="NpaNIxJUK8UgjH4EaC_c-279" value="WorkLocationBorough&lt;span style=&quot;font-size: 13px;&quot;&gt;&lt;span style=&quot;white-space: pre;&quot;&gt;&#x9;varchar(20)&lt;/span&gt;&lt;span style=&quot;white-space: pre;&quot;&gt;&#x9;&lt;/span&gt;&lt;/span&gt;" style="shape=partialRectangle;connectable=0;fillColor=none;top=0;left=0;bottom=0;right=0;align=left;spacingLeft=6;overflow=hidden;whiteSpace=wrap;html=1;fontFamily=Garamond;fontStyle=0;fontSize=13;" vertex="1" parent="NpaNIxJUK8UgjH4EaC_c-277">
          <mxGeometry x="30" width="214" height="30" as="geometry">
            <mxRectangle width="214" height="30" as="alternateBounds" />
          </mxGeometry>
        </mxCell>
        <mxCell id="NpaNIxJUK8UgjH4EaC_c-208" value="" style="endArrow=classic;html=1;rounded=0;fontSize=13;startSize=8;endSize=8;curved=1;fontFamily=Garamond;fontStyle=0" edge="1" parent="1">
          <mxGeometry width="50" height="50" relative="1" as="geometry">
            <mxPoint x="484" y="204" as="sourcePoint" />
            <mxPoint x="655" y="204" as="targetPoint" />
          </mxGeometry>
        </mxCell>
        <mxCell id="NpaNIxJUK8UgjH4EaC_c-212" value="&lt;span style=&quot;text-align: start; white-space: normal;&quot;&gt;&lt;font style=&quot;font-size: 15px;&quot;&gt;DimEmployee&lt;/font&gt;&lt;/span&gt;" style="shape=table;startSize=30;container=1;collapsible=1;childLayout=tableLayout;fixedRows=1;rowLines=0;fontStyle=0;align=center;resizeLast=1;html=1;fontFamily=Garamond;fontSize=13;" vertex="1" parent="1">
          <mxGeometry x="731" y="38" width="253" height="148" as="geometry" />
        </mxCell>
        <mxCell id="NpaNIxJUK8UgjH4EaC_c-213" value="" style="shape=tableRow;horizontal=0;startSize=0;swimlaneHead=0;swimlaneBody=0;fillColor=none;collapsible=0;dropTarget=0;points=[[0,0.5],[1,0.5]];portConstraint=eastwest;top=0;left=0;right=0;bottom=1;fontFamily=Garamond;fontStyle=0;fontSize=13;" vertex="1" parent="NpaNIxJUK8UgjH4EaC_c-212">
          <mxGeometry y="30" width="253" height="30" as="geometry" />
        </mxCell>
        <mxCell id="NpaNIxJUK8UgjH4EaC_c-214" value="PK" style="shape=partialRectangle;connectable=0;fillColor=none;top=0;left=0;bottom=0;right=0;fontStyle=0;overflow=hidden;whiteSpace=wrap;html=1;fontFamily=Garamond;fontSize=13;" vertex="1" parent="NpaNIxJUK8UgjH4EaC_c-213">
          <mxGeometry width="30" height="30" as="geometry">
            <mxRectangle width="30" height="30" as="alternateBounds" />
          </mxGeometry>
        </mxCell>
        <mxCell id="NpaNIxJUK8UgjH4EaC_c-215" value="&lt;span style=&quot;font-size: 13px; text-decoration: none;&quot;&gt;EmployeeID&lt;span style=&quot;white-space: pre; font-size: 13px;&quot;&gt;&#x9;&lt;/span&gt;&lt;span style=&quot;white-space: pre; font-size: 13px;&quot;&gt;&#x9;int&lt;/span&gt;&lt;/span&gt;" style="shape=partialRectangle;connectable=0;fillColor=none;top=0;left=0;bottom=0;right=0;align=left;spacingLeft=6;fontStyle=4;overflow=hidden;whiteSpace=wrap;html=1;fontFamily=Garamond;fontSize=13;" vertex="1" parent="NpaNIxJUK8UgjH4EaC_c-213">
          <mxGeometry x="30" width="223" height="30" as="geometry">
            <mxRectangle width="223" height="30" as="alternateBounds" />
          </mxGeometry>
        </mxCell>
        <mxCell id="NpaNIxJUK8UgjH4EaC_c-216" value="" style="shape=tableRow;horizontal=0;startSize=0;swimlaneHead=0;swimlaneBody=0;fillColor=none;collapsible=0;dropTarget=0;points=[[0,0.5],[1,0.5]];portConstraint=eastwest;top=0;left=0;right=0;bottom=0;fontFamily=Garamond;fontStyle=0;fontSize=13;" vertex="1" parent="NpaNIxJUK8UgjH4EaC_c-212">
          <mxGeometry y="60" width="253" height="28" as="geometry" />
        </mxCell>
        <mxCell id="NpaNIxJUK8UgjH4EaC_c-217" value="" style="shape=partialRectangle;connectable=0;fillColor=none;top=0;left=0;bottom=0;right=0;editable=1;overflow=hidden;whiteSpace=wrap;html=1;fontFamily=Garamond;fontStyle=0;fontSize=13;" vertex="1" parent="NpaNIxJUK8UgjH4EaC_c-216">
          <mxGeometry width="30" height="28" as="geometry">
            <mxRectangle width="30" height="28" as="alternateBounds" />
          </mxGeometry>
        </mxCell>
        <mxCell id="NpaNIxJUK8UgjH4EaC_c-218" value="&lt;span style=&quot;font-size: 13px;&quot;&gt;LastName&lt;span style=&quot;white-space: pre; font-size: 13px;&quot;&gt;&#x9;&lt;/span&gt;&lt;span style=&quot;white-space: pre; font-size: 13px;&quot;&gt;&#x9;varchar(50)&lt;/span&gt;&lt;/span&gt;" style="shape=partialRectangle;connectable=0;fillColor=none;top=0;left=0;bottom=0;right=0;align=left;spacingLeft=6;overflow=hidden;whiteSpace=wrap;html=1;fontFamily=Garamond;fontStyle=0;fontSize=13;" vertex="1" parent="NpaNIxJUK8UgjH4EaC_c-216">
          <mxGeometry x="30" width="223" height="28" as="geometry">
            <mxRectangle width="223" height="28" as="alternateBounds" />
          </mxGeometry>
        </mxCell>
        <mxCell id="NpaNIxJUK8UgjH4EaC_c-219" value="" style="shape=tableRow;horizontal=0;startSize=0;swimlaneHead=0;swimlaneBody=0;fillColor=none;collapsible=0;dropTarget=0;points=[[0,0.5],[1,0.5]];portConstraint=eastwest;top=0;left=0;right=0;bottom=0;fontFamily=Garamond;fontStyle=0;fontSize=13;" vertex="1" parent="NpaNIxJUK8UgjH4EaC_c-212">
          <mxGeometry y="88" width="253" height="30" as="geometry" />
        </mxCell>
        <mxCell id="NpaNIxJUK8UgjH4EaC_c-220" value="" style="shape=partialRectangle;connectable=0;fillColor=none;top=0;left=0;bottom=0;right=0;editable=1;overflow=hidden;whiteSpace=wrap;html=1;fontFamily=Garamond;fontStyle=0;fontSize=13;" vertex="1" parent="NpaNIxJUK8UgjH4EaC_c-219">
          <mxGeometry width="30" height="30" as="geometry">
            <mxRectangle width="30" height="30" as="alternateBounds" />
          </mxGeometry>
        </mxCell>
        <mxCell id="NpaNIxJUK8UgjH4EaC_c-221" value="&lt;span style=&quot;font-size: 13px;&quot;&gt;FirstName&lt;span style=&quot;white-space: pre; font-size: 13px;&quot;&gt;&#x9;&lt;/span&gt;&lt;span style=&quot;white-space: pre; font-size: 13px;&quot;&gt;&#x9;&lt;/span&gt;&lt;/span&gt;&lt;span style=&quot;font-size: 13px; white-space: pre;&quot;&gt;varchar(50)&lt;/span&gt;" style="shape=partialRectangle;connectable=0;fillColor=none;top=0;left=0;bottom=0;right=0;align=left;spacingLeft=6;overflow=hidden;whiteSpace=wrap;html=1;fontFamily=Garamond;fontStyle=0;fontSize=13;" vertex="1" parent="NpaNIxJUK8UgjH4EaC_c-219">
          <mxGeometry x="30" width="223" height="30" as="geometry">
            <mxRectangle width="223" height="30" as="alternateBounds" />
          </mxGeometry>
        </mxCell>
        <mxCell id="NpaNIxJUK8UgjH4EaC_c-280" value="" style="shape=tableRow;horizontal=0;startSize=0;swimlaneHead=0;swimlaneBody=0;fillColor=none;collapsible=0;dropTarget=0;points=[[0,0.5],[1,0.5]];portConstraint=eastwest;top=0;left=0;right=0;bottom=0;fontFamily=Garamond;fontStyle=0;fontSize=13;" vertex="1" parent="NpaNIxJUK8UgjH4EaC_c-212">
          <mxGeometry y="118" width="253" height="30" as="geometry" />
        </mxCell>
        <mxCell id="NpaNIxJUK8UgjH4EaC_c-281" value="" style="shape=partialRectangle;connectable=0;fillColor=none;top=0;left=0;bottom=0;right=0;editable=1;overflow=hidden;whiteSpace=wrap;html=1;fontFamily=Garamond;fontStyle=0;fontSize=13;" vertex="1" parent="NpaNIxJUK8UgjH4EaC_c-280">
          <mxGeometry width="30" height="30" as="geometry">
            <mxRectangle width="30" height="30" as="alternateBounds" />
          </mxGeometry>
        </mxCell>
        <mxCell id="NpaNIxJUK8UgjH4EaC_c-282" value="&lt;span style=&quot;font-size: 13px;&quot;&gt;LeaveStatus&lt;span style=&quot;white-space: pre; font-size: 13px;&quot;&gt;&#x9;&lt;/span&gt;&lt;span style=&quot;white-space: pre; font-size: 13px;&quot;&gt;&#x9;&lt;/span&gt;&lt;/span&gt;&lt;span style=&quot;font-size: 13px; white-space: pre;&quot;&gt;varchar(10)&lt;/span&gt;" style="shape=partialRectangle;connectable=0;fillColor=none;top=0;left=0;bottom=0;right=0;align=left;spacingLeft=6;overflow=hidden;whiteSpace=wrap;html=1;fontFamily=Garamond;fontStyle=0;fontSize=13;" vertex="1" parent="NpaNIxJUK8UgjH4EaC_c-280">
          <mxGeometry x="30" width="223" height="30" as="geometry">
            <mxRectangle width="223" height="30" as="alternateBounds" />
          </mxGeometry>
        </mxCell>
        <mxCell id="NpaNIxJUK8UgjH4EaC_c-263" style="edgeStyle=orthogonalEdgeStyle;rounded=0;orthogonalLoop=1;jettySize=auto;html=1;entryX=0;entryY=0.5;entryDx=0;entryDy=0;fontSize=12;startSize=8;endSize=8;exitX=1;exitY=0.5;exitDx=0;exitDy=0;" edge="1" parent="1" source="NpaNIxJUK8UgjH4EaC_c-223" target="NpaNIxJUK8UgjH4EaC_c-163">
          <mxGeometry relative="1" as="geometry" />
        </mxCell>
        <mxCell id="NpaNIxJUK8UgjH4EaC_c-222" value="&lt;span style=&quot;text-align: start; white-space: normal;&quot;&gt;&lt;font style=&quot;font-size: 14px;&quot;&gt;DimAgency&lt;/font&gt;&lt;/span&gt;" style="shape=table;startSize=30;container=1;collapsible=1;childLayout=tableLayout;fixedRows=1;rowLines=0;fontStyle=0;align=center;resizeLast=1;html=1;fontFamily=Garamond;fontSize=13;" vertex="1" parent="1">
          <mxGeometry x="731" y="289" width="248" height="124" as="geometry" />
        </mxCell>
        <mxCell id="NpaNIxJUK8UgjH4EaC_c-223" value="" style="shape=tableRow;horizontal=0;startSize=0;swimlaneHead=0;swimlaneBody=0;fillColor=none;collapsible=0;dropTarget=0;points=[[0,0.5],[1,0.5]];portConstraint=eastwest;top=0;left=0;right=0;bottom=1;fontFamily=Garamond;fontStyle=0;fontSize=13;" vertex="1" parent="NpaNIxJUK8UgjH4EaC_c-222">
          <mxGeometry y="30" width="248" height="30" as="geometry" />
        </mxCell>
        <mxCell id="NpaNIxJUK8UgjH4EaC_c-224" value="PK" style="shape=partialRectangle;connectable=0;fillColor=none;top=0;left=0;bottom=0;right=0;fontStyle=0;overflow=hidden;whiteSpace=wrap;html=1;fontFamily=Garamond;fontSize=13;" vertex="1" parent="NpaNIxJUK8UgjH4EaC_c-223">
          <mxGeometry width="30" height="30" as="geometry">
            <mxRectangle width="30" height="30" as="alternateBounds" />
          </mxGeometry>
        </mxCell>
        <mxCell id="NpaNIxJUK8UgjH4EaC_c-225" value="&lt;span style=&quot;font-size: 13px; text-decoration: none;&quot;&gt;AgencyID&lt;span style=&quot;white-space: pre; font-size: 13px;&quot;&gt;&#x9;&lt;/span&gt;&lt;span style=&quot;white-space: pre; font-size: 13px;&quot;&gt;&#x9;int&lt;/span&gt;&lt;/span&gt;" style="shape=partialRectangle;connectable=0;fillColor=none;top=0;left=0;bottom=0;right=0;align=left;spacingLeft=6;fontStyle=4;overflow=hidden;whiteSpace=wrap;html=1;fontFamily=Garamond;fontSize=13;" vertex="1" parent="NpaNIxJUK8UgjH4EaC_c-223">
          <mxGeometry x="30" width="218" height="30" as="geometry">
            <mxRectangle width="218" height="30" as="alternateBounds" />
          </mxGeometry>
        </mxCell>
        <mxCell id="NpaNIxJUK8UgjH4EaC_c-226" value="" style="shape=tableRow;horizontal=0;startSize=0;swimlaneHead=0;swimlaneBody=0;fillColor=none;collapsible=0;dropTarget=0;points=[[0,0.5],[1,0.5]];portConstraint=eastwest;top=0;left=0;right=0;bottom=0;fontFamily=Garamond;fontStyle=0;fontSize=13;" vertex="1" parent="NpaNIxJUK8UgjH4EaC_c-222">
          <mxGeometry y="60" width="248" height="34" as="geometry" />
        </mxCell>
        <mxCell id="NpaNIxJUK8UgjH4EaC_c-227" value="" style="shape=partialRectangle;connectable=0;fillColor=none;top=0;left=0;bottom=0;right=0;editable=1;overflow=hidden;whiteSpace=wrap;html=1;fontFamily=Garamond;fontStyle=0;fontSize=13;" vertex="1" parent="NpaNIxJUK8UgjH4EaC_c-226">
          <mxGeometry width="30" height="34" as="geometry">
            <mxRectangle width="30" height="34" as="alternateBounds" />
          </mxGeometry>
        </mxCell>
        <mxCell id="NpaNIxJUK8UgjH4EaC_c-228" value="&lt;span style=&quot;font-size: 13px;&quot;&gt;AgencyName&lt;span style=&quot;white-space: pre; font-size: 13px;&quot;&gt;&#x9;&lt;/span&gt;&lt;span style=&quot;white-space: pre; font-size: 13px;&quot;&gt;&#x9;varchar(100)&lt;/span&gt;&lt;/span&gt;" style="shape=partialRectangle;connectable=0;fillColor=none;top=0;left=0;bottom=0;right=0;align=left;spacingLeft=6;overflow=hidden;whiteSpace=wrap;html=1;fontFamily=Garamond;fontStyle=0;fontSize=13;" vertex="1" parent="NpaNIxJUK8UgjH4EaC_c-226">
          <mxGeometry x="30" width="218" height="34" as="geometry">
            <mxRectangle width="218" height="34" as="alternateBounds" />
          </mxGeometry>
        </mxCell>
        <mxCell id="NpaNIxJUK8UgjH4EaC_c-265" value="" style="shape=tableRow;horizontal=0;startSize=0;swimlaneHead=0;swimlaneBody=0;fillColor=none;collapsible=0;dropTarget=0;points=[[0,0.5],[1,0.5]];portConstraint=eastwest;top=0;left=0;right=0;bottom=0;fontFamily=Garamond;fontStyle=0;fontSize=13;" vertex="1" parent="NpaNIxJUK8UgjH4EaC_c-222">
          <mxGeometry y="94" width="248" height="30" as="geometry" />
        </mxCell>
        <mxCell id="NpaNIxJUK8UgjH4EaC_c-266" value="FK" style="shape=partialRectangle;connectable=0;fillColor=none;top=0;left=0;bottom=0;right=0;editable=1;overflow=hidden;whiteSpace=wrap;html=1;fontFamily=Garamond;fontStyle=0;fontSize=13;" vertex="1" parent="NpaNIxJUK8UgjH4EaC_c-265">
          <mxGeometry width="30" height="30" as="geometry">
            <mxRectangle width="30" height="30" as="alternateBounds" />
          </mxGeometry>
        </mxCell>
        <mxCell id="NpaNIxJUK8UgjH4EaC_c-267" value="&lt;span style=&quot;font-size: 13px;&quot;&gt;AgencyStartDate&lt;span style=&quot;white-space: pre; font-size: 13px;&quot;&gt;&#x9;date&lt;/span&gt;&lt;/span&gt;" style="shape=partialRectangle;connectable=0;fillColor=none;top=0;left=0;bottom=0;right=0;align=left;spacingLeft=6;overflow=hidden;whiteSpace=wrap;html=1;fontFamily=Garamond;fontStyle=0;fontSize=13;" vertex="1" parent="NpaNIxJUK8UgjH4EaC_c-265">
          <mxGeometry x="30" width="218" height="30" as="geometry">
            <mxRectangle width="218" height="30" as="alternateBounds" />
          </mxGeometry>
        </mxCell>
        <mxCell id="NpaNIxJUK8UgjH4EaC_c-229" value="&lt;span style=&quot;text-align: start; white-space: normal;&quot;&gt;&lt;font style=&quot;font-size: 14px;&quot;&gt;DimTittle&lt;/font&gt;&lt;/span&gt;" style="shape=table;startSize=30;container=1;collapsible=1;childLayout=tableLayout;fixedRows=1;rowLines=0;fontStyle=0;align=center;resizeLast=1;html=1;fontFamily=Garamond;fontSize=13;" vertex="1" parent="1">
          <mxGeometry x="1467" y="37.5" width="203.75" height="87" as="geometry" />
        </mxCell>
        <mxCell id="NpaNIxJUK8UgjH4EaC_c-230" value="" style="shape=tableRow;horizontal=0;startSize=0;swimlaneHead=0;swimlaneBody=0;fillColor=none;collapsible=0;dropTarget=0;points=[[0,0.5],[1,0.5]];portConstraint=eastwest;top=0;left=0;right=0;bottom=1;fontFamily=Garamond;fontStyle=0;fontSize=13;" vertex="1" parent="NpaNIxJUK8UgjH4EaC_c-229">
          <mxGeometry y="30" width="203.75" height="26" as="geometry" />
        </mxCell>
        <mxCell id="NpaNIxJUK8UgjH4EaC_c-231" value="PK" style="shape=partialRectangle;connectable=0;fillColor=none;top=0;left=0;bottom=0;right=0;fontStyle=0;overflow=hidden;whiteSpace=wrap;html=1;fontFamily=Garamond;fontSize=13;" vertex="1" parent="NpaNIxJUK8UgjH4EaC_c-230">
          <mxGeometry width="30" height="26" as="geometry">
            <mxRectangle width="30" height="26" as="alternateBounds" />
          </mxGeometry>
        </mxCell>
        <mxCell id="NpaNIxJUK8UgjH4EaC_c-232" value="&lt;span style=&quot;font-size: 13px; text-decoration: none;&quot;&gt;TitleCode&lt;span style=&quot;white-space: pre; font-size: 13px;&quot;&gt;&#x9;&lt;/span&gt;&lt;span style=&quot;white-space: pre; font-size: 13px;&quot;&gt;&#x9;int&lt;/span&gt;&lt;/span&gt;" style="shape=partialRectangle;connectable=0;fillColor=none;top=0;left=0;bottom=0;right=0;align=left;spacingLeft=6;fontStyle=4;overflow=hidden;whiteSpace=wrap;html=1;fontFamily=Garamond;fontSize=13;" vertex="1" parent="NpaNIxJUK8UgjH4EaC_c-230">
          <mxGeometry x="30" width="173.75" height="26" as="geometry">
            <mxRectangle width="173.75" height="26" as="alternateBounds" />
          </mxGeometry>
        </mxCell>
        <mxCell id="NpaNIxJUK8UgjH4EaC_c-233" value="" style="shape=tableRow;horizontal=0;startSize=0;swimlaneHead=0;swimlaneBody=0;fillColor=none;collapsible=0;dropTarget=0;points=[[0,0.5],[1,0.5]];portConstraint=eastwest;top=0;left=0;right=0;bottom=0;fontFamily=Garamond;fontStyle=0;fontSize=13;" vertex="1" parent="NpaNIxJUK8UgjH4EaC_c-229">
          <mxGeometry y="56" width="203.75" height="30" as="geometry" />
        </mxCell>
        <mxCell id="NpaNIxJUK8UgjH4EaC_c-234" value="" style="shape=partialRectangle;connectable=0;fillColor=none;top=0;left=0;bottom=0;right=0;editable=1;overflow=hidden;whiteSpace=wrap;html=1;fontFamily=Garamond;fontStyle=0;fontSize=13;" vertex="1" parent="NpaNIxJUK8UgjH4EaC_c-233">
          <mxGeometry width="30" height="30" as="geometry">
            <mxRectangle width="30" height="30" as="alternateBounds" />
          </mxGeometry>
        </mxCell>
        <mxCell id="NpaNIxJUK8UgjH4EaC_c-235" value="&lt;span style=&quot;font-size: 13px;&quot;&gt;TitleDescription&lt;span style=&quot;white-space: pre; font-size: 13px;&quot;&gt;&#x9;text&lt;/span&gt;&lt;/span&gt;" style="shape=partialRectangle;connectable=0;fillColor=none;top=0;left=0;bottom=0;right=0;align=left;spacingLeft=6;overflow=hidden;whiteSpace=wrap;html=1;fontFamily=Garamond;fontStyle=0;fontSize=13;" vertex="1" parent="NpaNIxJUK8UgjH4EaC_c-233">
          <mxGeometry x="30" width="173.75" height="30" as="geometry">
            <mxRectangle width="173.75" height="30" as="alternateBounds" />
          </mxGeometry>
        </mxCell>
        <mxCell id="NpaNIxJUK8UgjH4EaC_c-261" style="edgeStyle=orthogonalEdgeStyle;rounded=0;orthogonalLoop=1;jettySize=auto;html=1;exitX=1;exitY=0.5;exitDx=0;exitDy=0;entryX=0;entryY=0.5;entryDx=0;entryDy=0;fontSize=12;startSize=8;endSize=8;" edge="1" parent="1" source="NpaNIxJUK8UgjH4EaC_c-213" target="NpaNIxJUK8UgjH4EaC_c-166">
          <mxGeometry relative="1" as="geometry" />
        </mxCell>
        <mxCell id="NpaNIxJUK8UgjH4EaC_c-262" style="edgeStyle=orthogonalEdgeStyle;rounded=0;orthogonalLoop=1;jettySize=auto;html=1;exitX=0;exitY=0.5;exitDx=0;exitDy=0;entryX=1;entryY=0.5;entryDx=0;entryDy=0;fontSize=12;startSize=8;endSize=8;" edge="1" parent="1" source="NpaNIxJUK8UgjH4EaC_c-230" target="NpaNIxJUK8UgjH4EaC_c-181">
          <mxGeometry relative="1" as="geometry" />
        </mxCell>
      </root>
    </mxGraphModel>
  </diagram>
</mxfile>
